<svg version="1.1" preserveAspectRatio="none" xmlns="http://www.w3.org/2000/svg" width="500" height="500" viewBox="0 0 500 500"><rect width="100%" height="100%" fill="#F2F2F2" fill-opacity="1"/><svg viewBox="72.0446 91.3922 356.9552 232.2592" width="333" height="216.67232638717687" x="83.5px" y="141.6638px" xmlns="http://www.w3.org/2000/svg" xmlns:xlink="http://www.w3.org/1999/xlink" preserveAspectRatio="none"><defs></defs><style>.companyName {fill:#1E1E1E;fill-opacity:1;}.icon1 {fill:#F56E56;fill-opacity:1;}.icon2 {fill:#1E1E1E;fill-opacity:1;}.icon3 {fill:#D0D0D0;fill-opacity:1;}.icon3-str {stroke:#D0D0D0;stroke-opacity:1;}</style><g opacity="1" transform="rotate(0 72.0446 283.6514)">
<svg width="356.9552" height="40" x="72.0446" y="283.6514" version="1.1" preserveAspectRatio="none" viewBox="3.28 -26.8 239.16 26.8">
  <g transform="matrix(1 0 0 1 0 0)" class="companyName"><path id="id-D6z1nYkh11" d="M19.12-3.60L19.12-3.60L19.12-21.28Q19.12-22.08 18.88-22.30Q18.64-22.52 17.88-22.52L17.88-22.52L9.76-22.52L9.76-2.36L17.88-2.36Q18.64-2.36 18.88-2.58Q19.12-2.80 19.12-3.60ZM3.28 0L3.28-24.88L22.44-24.88Q25.60-24.88 25.60-21.72L25.60-21.72L25.60-3.16Q25.60 0 22.44 0L22.44 0L3.28 0Z M37.44-15.80L37.44-11.12L46.08-11.12L46.08-15.80Q46.08-16.56 45.86-16.80Q45.64-17.04 44.84-17.04L44.84-17.04L38.68-17.04Q37.88-17.04 37.66-16.80Q37.44-16.56 37.44-15.80L37.44-15.80ZM34.44-19.40L34.44-19.40L48.92-19.40Q52.08-19.40 52.08-16.24L52.08-16.24L52.08-8.76L37.44-8.76L37.44-3.60Q37.44-2.80 37.66-2.58Q37.88-2.36 38.68-2.36L38.68-2.36L44.76-2.36Q45.56-2.36 45.78-2.58Q46-2.80 46-3.60L46-3.60L46-5.96L52-5.96L52-3.16Q52 0 48.84 0L48.84 0L34.44 0Q31.28 0 31.28-3.16L31.28-3.16L31.28-16.24Q31.28-19.40 34.44-19.40Z M70.08-3.56L70.08-3.56L70.08-7.24Q70.08-8 69.86-8.24Q69.64-8.48 68.84-8.48L68.84-8.48L60-8.48Q56.84-8.48 56.84-11.64L56.84-11.64L56.84-16.24Q56.84-19.40 60-19.40L60-19.40L72.84-19.40Q76-19.40 76-16.24L76-16.24L76-13.60L70-13.60L70-15.84Q70-16.64 69.78-16.86Q69.56-17.08 68.76-17.08L68.76-17.08L64.24-17.08Q63.48-17.08 63.24-16.86Q63-16.64 63-15.84L63-15.84L63-12.08Q63-11.28 63.24-11.06Q63.48-10.84 64.24-10.84L64.24-10.84L73.08-10.84Q76.24-10.84 76.24-7.68L76.24-7.68L76.24-3.16Q76.24 0 73.08 0L73.08 0L60.12 0Q56.96 0 56.96-3.16L56.96-3.16L56.96-5.80L63-5.80L63-3.56Q63-2.80 63.24-2.56Q63.48-2.32 64.24-2.32L64.24-2.32L68.84-2.32Q69.64-2.32 69.86-2.56Q70.08-2.80 70.08-3.56Z M87.88-19.40L87.88 0L81.68 0L81.68-19.40L87.88-19.40ZM88.00-22.64L81.56-22.64L81.56-26.80L88.00-26.80L88.00-22.64Z M121.24-11.72L121.24-11.72L121.24-21.28Q121.24-22.08 121.02-22.30Q120.80-22.52 120-22.52L120-22.52L111.76-22.52L111.76-10.48L120-10.48Q120.80-10.48 121.02-10.72Q121.24-10.96 121.24-11.72ZM105.28 0L105.28-24.88L124.52-24.88Q127.68-24.88 127.68-21.72L127.68-21.72L127.68-11.28Q127.68-8.12 124.52-8.12L124.52-8.12L111.76-8.12L111.76 0L105.28 0Z M139.60-2.36L139.60-2.36L145-2.36Q146.44-2.36 146.44-3.64L146.44-3.64L146.44-15.76Q146.44-17.04 145-17.04L145-17.04L139.60-17.04Q138.80-17.04 138.58-16.80Q138.36-16.56 138.36-15.80L138.36-15.80L138.36-3.60Q138.36-2.80 138.58-2.58Q138.80-2.36 139.60-2.36ZM146.44-18.08L146.44-19.40L152.60-19.40L152.60 0L146.44 0L146.44-1.32Q145.96 0 144.16 0L144.16 0L135.36 0Q132.20 0 132.20-3.16L132.20-3.16L132.20-16.24Q132.20-19.40 135.36-19.40L135.36-19.40L144.16-19.40Q145.96-19.40 146.44-18.08L146.44-18.08Z M165.04-26.76L165.04 0L158.84 0L158.84-26.76L165.04-26.76Z M178.40-2.36L178.40-2.36L183.80-2.36Q185.24-2.36 185.24-3.64L185.24-3.64L185.24-15.76Q185.24-17.04 183.80-17.04L183.80-17.04L178.40-17.04Q177.60-17.04 177.38-16.80Q177.16-16.56 177.16-15.80L177.16-15.80L177.16-3.60Q177.16-2.80 177.38-2.58Q177.60-2.36 178.40-2.36ZM185.24-18.08L185.24-19.40L191.40-19.40L191.40 0L185.24 0L185.24-1.32Q184.76 0 182.96 0L182.96 0L174.16 0Q171 0 171-3.16L171-3.16L171-16.24Q171-19.40 174.16-19.40L174.16-19.40L182.96-19.40Q184.76-19.40 185.24-18.08L185.24-18.08Z M217-16.24L217-12.64L210.96-12.64L210.96-15.80Q210.96-16.56 210.74-16.80Q210.52-17.04 209.72-17.04L209.72-17.04L204.44-17.04Q203.64-17.04 203.42-16.80Q203.20-16.56 203.20-15.80L203.20-15.80L203.20-3.60Q203.20-2.80 203.42-2.58Q203.64-2.36 204.44-2.36L204.44-2.36L209.72-2.36Q210.52-2.36 210.74-2.58Q210.96-2.80 210.96-3.60L210.96-3.60L210.96-6.68L217-6.68L217-3.16Q217 0 213.84 0L213.84 0L200.20 0Q197.04 0 197.04-3.16L197.04-3.16L197.04-16.24Q197.04-19.40 200.20-19.40L200.20-19.40L213.84-19.40Q217-19.40 217-16.24L217-16.24Z M227.80-15.80L227.80-11.12L236.44-11.12L236.44-15.80Q236.44-16.56 236.22-16.80Q236.00-17.04 235.20-17.04L235.20-17.04L229.04-17.04Q228.24-17.04 228.02-16.80Q227.80-16.56 227.80-15.80L227.80-15.80ZM224.80-19.40L224.80-19.40L239.28-19.40Q242.44-19.40 242.44-16.24L242.44-16.24L242.44-8.76L227.80-8.76L227.80-3.60Q227.80-2.80 228.02-2.58Q228.24-2.36 229.04-2.36L229.04-2.36L235.12-2.36Q235.92-2.36 236.14-2.58Q236.36-2.80 236.36-3.60L236.36-3.60L236.36-5.96L242.36-5.96L242.36-3.16Q242.36 0 239.20 0L239.20 0L224.80 0Q221.64 0 221.64-3.16L221.64-3.16L221.64-16.24Q221.64-19.40 224.80-19.40Z"/></g>
</svg>
</g><g opacity="1" transform="rotate(0 200.5485 91.3922)">
<svg width="99.9475" height="152.2592" x="200.5485" y="91.3922" version="1.1" preserveAspectRatio="none" viewBox="47.409019470214844 19.935150146484375 105.11365509033203 160.12930297851562">
  <g transform="matrix(1 0 0 1 0 0)"><g><path d="M131.6 96.4c0-.6-.1-1.2-.3-1.8v-2.9c-1.2-17.8-16.7-31.2-34.6-30-17.8 1.2-31.2 16.5-30.2 34.2.1 1 .2 2 .3 2.9 0 .6-.1 1.2 0 1.8l.1.6c2.6-.6 10.4.4 19.1.2 10.6-.3 19.9-1.3 18.5-.5-2.8 1.7-5.6 2.1-19.2 3.7-11.1 1.3-15.9.6-17.9-.5 1.6 8.1 5.6 27.8 7.2 35.5.1.6 5.3 19.4 23 19.4l14.1-1.8c5.2-.6 11.7-5.2 13.7-10.1 8.2-18.9 6.2-50.7 6.2-50.7zM99.2 77.9c-5.3 0-9.7-2.8-9.7-6.2 0-3.4 4.3-6.2 9.7-6.2 5.3 0 9.7 2.8 9.7 6.2 0 3.4-4.4 6.2-9.7 6.2z" data-color="1" class="icon1"></path><path d="M84.7 29.3c8.2 10.1 6.4 21.9 3.2 25.9s-3.2-9.8-15.3-15c-11-4.7-10-10.7-8.5-12.7 4.4-5.9 14.1-6.1 20.6 1.8z" data-color="2" class="icon2"></path><path d="M90.4 28.1c-.1 5.5 2.8 14.4 3.5 11.5 1.4-5.5 3-7.1 5.6-12.7 2.4-5 .9-7.4-2-6.9-2.6.6-7 3.4-7.1 8.1z" data-color="3" class="icon3"></path><path d="M139.9 132.1c-2.6 5.2-3.6 15-1.7 12.6 3.7-4.7 6-5.5 10.9-9.7 4.5-3.8 4.2-6.7 1.2-7.5-2.8-.7-8.2.1-10.4 4.6z" data-color="2" class="icon2"></path><path d="M113.5 168.1c-18.2 7.4-31.7 2.4-43.5-15-8.9-13.1-11-16.9-16.6-15.3-9.3 2.7-7.6 18.2 3.9 30.3 17 17.9 65.5 18 77.4-15.5.6-1.4-7.4 9.9-21.2 15.5zm-52.6-17.6c-1 1.1-1.3-3-5.6-4.8-3.9-1.6-3.7-3.4-3.2-4 1.4-1.7 4.7-1.6 7.1.9 3.1 3.2 2.8 6.8 1.7 7.9z" data-color="3" class="icon3"></path><path d="M74.3 46.9c2.9 2.4 6 7.9 4.2 7-3.4-1.7-5-1.6-9-2.7-3.7-1-4.2-2.8-2.6-4.1 1.5-1.2 4.9-2.3 7.4-.2z" data-color="1" class="icon1"></path><path d="M135.7 96.2c-.3-1.3-1.6-4-7.3-1.6l-3.8.8c-14 2.8-28.3 4.1-42.6 3.8l-15.3-.3c-2.1 0-3.8 1.7-3.8 3.8.1 2 0 3.7 4.7 5.4 12.9 1.6 26 1 38.7-1.7 11-2.5 15.9-3.1 25.5-5.8 1.5-.4 4.7-.7 3.9-4.4zm-31.2 4.7c-2.8 1.7-5.6 2.1-19.2 3.7-17.8 2-19.3-.9-19.3-2.7 0-1.8 9.3-.2 20-.5s19.9-1.3 18.5-.5z" data-color="3" class="icon3"></path><path d="M97.4 76.9l2.9-20.7c.7-4.4 2.6-8.2 7.9-10l26.1-7c1.1-.1 1.6 5.2.5 5.3l-24.8 7c-3.5 1.8-3.7 3.3-3.9 4.6l-3.2 20c-.1 1.2-5.6 1.9-5.5.8z" data-color="2" class="icon2"></path></g></g>
</svg>
</g></svg></svg>